<?xml version="1.0" encoding="UTF-8"?>
<svg id="Capa_1" data-name="Capa 1" xmlns="http://www.w3.org/2000/svg" version="1.1" viewBox="0 0 98 98">
  <defs>
    <style>
      .cls-1 {
        fill: #000;
      }

      .cls-1, .cls-2 {
        stroke-width: 0px;
      }

      .cls-2 {
        fill: #fff;
      }
    </style>
  </defs>
  <rect class="cls-1" width="98" height="98"/>
  <g>
    <path class="cls-2" d="M41.3,39.75c0-12.31,9.91-21.2,22.37-21.56h11.73l-2.48,3.64c-.66.95-1.17,1.75-1.68,2.55-.22.44-.51.8-.8,1.17h-6.12c-8.3,0-14.64,5.83-14.64,14.21,0,9.03,7.06,14.42,15.22,14.42h24.73c-.36.58-4.22,6.19-5.02,7.36h-20.36c-.66,0-1.31-.07-1.97-.07-9.11-.73-16.17-5.97-19.38-13.55-1.09-2.55-1.6-5.25-1.6-8.16Z"/>
    <path class="cls-2" d="M45.59,55.01c-3.06-6.92-6.34-13.55-13.11-28.48-6.04,13.26-7.06,15.22-7.57,16.39q-.44,1.24-4.74,10.34h14.35c1.17,2.7.15.36,3.5,7.58H8.37c.29-.66,19.23-41.96,19.96-43.35h8.3c1.17,2.91,13.84,30.01,22.51,48.88v18.14c-7.21-15.52-10.42-22.58-13.55-29.5Z"/>
  </g>
</svg>