<?xml version="1.0" encoding="UTF-8"?>
<svg id="Capa_1" data-name="Capa 1" xmlns="http://www.w3.org/2000/svg" version="1.1" viewBox="0 0 2048 1152">
  <defs>
    <style>
      .cls-1 {
        fill: #000;
      }

      .cls-1, .cls-2 {
        stroke-width: 0px;
      }

      .cls-2 {
        fill: #fff;
      }
    </style>
  </defs>
  <rect class="cls-1" width="2048" height="1152"/>
  <g>
    <path class="cls-2" d="M425.92,448.53h96.11l-24.2,35.96h-64.79c-39.87,0-71.56,28.13-71.56,69.43,0,43.79,34.52,75.83,74.4,75.83h49.13v-55.9h-55.18c3.55-5.33,6.75-10.32,9.97-14.94,5.33-8.19,11.74-17.45,14.6-21.73h67.63v167.52c-12.45-20.29-25.26-26.18-37.02-45.05v.71h-52.34c-62.66,0-112.14-46.28-112.14-106.44s46.64-102.53,105.39-105.39Z"/>
    <path class="cls-2" d="M573.31,460.3v110.61c0,27.77,22.78,52.69,53.76,52.69s53.76-23.13,53.76-52.69v-109.66l37.03-12.45v122.11c0,49.84-41.29,89.01-90.79,89.01s-90.78-39.53-90.78-89.01v-122.11l37.02,11.5Z"/>
    <path class="cls-2" d="M732.22,479.77c10.33-23.49,32.41-30.97,55.19-30.97h54.11c-1.78,3.2-3.91,6.06-6.04,9.26-7.48,10.32-18.16,26.35-18.16,27.06h-29.9c-12.83,0-23.15,7.83-23.15,20.29,0,15.65,10.32,24.2,23.15,24.2h4.62c40.95,0,68.35,28.12,68.35,66.57s-31.68,63.73-70.85,63.73h-106.74l38.46-36.32h68.28c18.16,0,33.81-11.39,33.81-30.25s-15.31-29.92-33.81-29.92c-3.91,0-6.77-.71-9.97-1.06-23.84-3.91-39.16-17.09-46.63-33.12-7.48-15.65-7.48-34.18-.72-49.48Z"/>
    <path class="cls-2" d="M972.83,553.83c0-60.16,48.42-103.6,109.3-105.39h57.31l-12.1,17.8c-3.2,4.64-5.7,8.55-8.19,12.46-1.06,2.15-2.49,3.91-3.91,5.7h-29.9c-40.58,0-71.56,28.48-71.56,69.43,0,44.15,34.52,70.48,74.4,70.48h106.56c-1.77,2.86-20.64,30.26-24.55,35.96h-85.21c-3.2,0-6.41-.36-9.61-.36-44.5-3.55-79.04-29.19-94.7-66.21-5.33-12.46-7.83-25.64-7.83-39.87Z"/>
    <path class="cls-2" d="M1143.24,554.88c0-55.75,44.54-100.3,98.94-104.71,2.71,0,5.44-.35,8.15-.35,19.05,0,36.04,4.76,51.01,12.58l10.08-13.6h35.7l-22.66,30.6c20.4,19.38,32.97,46.58,32.97,75.48,0,58.81-47.25,104.38-105.39,105.39h-2.71c-17.01,0-33.33-4.08-49.3-12.24l-9.65,12.24h-35.7l21.89-28.91c-10.2-9.51-18.35-20.73-24.14-33.99-6.12-12.91-9.18-27.2-9.18-42.49ZM1178.61,554.88c0,18.7,6.45,35.35,18.35,48.61l84.31-113.89c-8.15-3.74-17-6.12-26.51-7.14h-4.43c-29.58,0-55.41,18.35-65.95,44.54-3.74,8.83-5.77,18.01-5.77,27.88ZM1244.56,626.95c2.03.35,4.42.35,6.45.35,15.64,0,32.98-5.79,46.92-18.37l2.38-2.38c13.26-13.59,21.76-31.61,21.76-52.02-.35-17.33-6.8-33.99-18.02-47.25l-83.98,113.56c7.82,3.74,15.29,5.79,24.49,6.12Z"/>
    <path class="cls-2" d="M1485.96,660.27h-118.93v-211.47h37.02v174.45h97.56l-15.65,37.02Z"/>
    <path class="cls-2" d="M1710.97,553.83c0-60.16,48.42-103.6,109.3-105.39h57.31l-12.1,17.8c-3.2,4.64-5.7,8.55-8.19,12.46-1.06,2.15-2.49,3.91-3.91,5.7h-29.9c-40.58,0-71.56,28.48-71.56,69.43,0,44.15,34.52,70.48,74.4,70.48h41.32l28.09,35.96h-72.61c-3.2,0-6.41-.36-9.61-.36-44.5-3.55-79.04-29.19-94.7-66.21-5.33-12.46-7.83-25.64-7.83-39.87Z"/>
    <path class="cls-2" d="M1902.93,660.27v-189.93l37.02-22.07v212h-37.02Z"/>
    <path class="cls-2" d="M289.97,631.71c-14.94-33.83-30.97-66.22-64.08-139.2-29.54,64.79-34.52,74.4-37.02,80.09q-2.15,6.06-23.15,50.56h70.14c5.7,13.18.71,1.78,17.09,37.03H108.06c1.42-3.2,93.98-205.06,97.54-211.83h40.58c5.7,14.23,67.64,146.68,110.01,238.88v88.66c-35.25-75.83-50.9-110.37-66.22-144.19Z"/>
    <path class="cls-2" d="M1683.52,631.62c-14.94-33.83-30.97-66.22-64.08-139.2-29.54,64.79-34.52,74.4-37.02,80.09q-2.15,6.06-23.15,50.56h70.14c5.7,13.18.71,1.78,17.09,37.03h-144.9c1.42-3.2,93.98-205.06,97.54-211.83h40.58c5.7,14.23,67.64,146.68,110.01,238.88v88.66c-35.25-75.83-50.9-110.37-66.22-144.19Z"/>
  </g>
</svg>