<?xml version="1.0" encoding="UTF-8"?>
<svg id="Capa_1" data-name="Capa 1" xmlns="http://www.w3.org/2000/svg" version="1.1" viewBox="0 0 539.52 97.34">
  <defs>
    <style>
      .cls-1 {
        fill: #fff;
        stroke-width: 0px;
      }
    </style>
  </defs>
  <path class="cls-1" d="M93.42,1.13h28.25l-7.11,10.57h-19.04c-11.72,0-21.03,8.27-21.03,20.4,0,12.87,10.15,22.29,21.87,22.29h14.44v-16.43h-16.22c1.04-1.57,1.99-3.03,2.93-4.39,1.57-2.41,3.45-5.13,4.29-6.39h19.88v49.24c-3.66-5.96-7.42-7.69-10.88-13.24v.21h-15.38c-18.42,0-32.96-13.6-32.96-31.28S76.16,1.96,93.42,1.13Z"/>
  <path class="cls-1" d="M136.74,4.58v32.51c0,8.16,6.7,15.48,15.8,15.48s15.8-6.8,15.8-15.48V4.86l10.88-3.66v35.89c0,14.65-12.14,26.16-26.68,26.16s-26.68-11.62-26.68-26.16V1.2l10.88,3.38Z"/>
  <path class="cls-1" d="M183.44,10.31c3.04-6.91,9.53-9.1,16.22-9.1h15.9c-.52.94-1.15,1.78-1.78,2.72-2.2,3.03-5.34,7.74-5.34,7.95h-8.79c-3.77,0-6.8,2.3-6.8,5.96,0,4.6,3.03,7.11,6.8,7.11h1.36c12.03,0,20.09,8.26,20.09,19.57s-9.31,18.73-20.82,18.73h-31.37l11.3-10.68h20.07c5.34,0,9.94-3.35,9.94-8.89s-4.5-8.79-9.94-8.79c-1.15,0-1.99-.21-2.93-.31-7.01-1.15-11.51-5.02-13.7-9.73-2.2-4.6-2.2-10.04-.21-14.54Z"/>
  <path class="cls-1" d="M254.16,32.07c0-17.68,14.23-30.45,32.12-30.97h16.84l-3.56,5.23c-.94,1.36-1.67,2.51-2.41,3.66-.31.63-.73,1.15-1.15,1.67h-8.79c-11.93,0-21.03,8.37-21.03,20.4,0,12.98,10.15,20.72,21.87,20.72h31.32c-.52.84-6.07,8.89-7.22,10.57h-25.04c-.94,0-1.88-.11-2.82-.11-13.08-1.04-23.23-8.58-27.83-19.46-1.57-3.66-2.3-7.54-2.3-11.72Z"/>
  <path class="cls-1" d="M304.25,32.38c0-16.39,13.09-29.48,29.08-30.77.8,0,1.6-.1,2.4-.1,5.6,0,10.59,1.4,14.99,3.7l2.96-4h10.49l-6.66,8.99c6,5.7,9.69,13.69,9.69,22.18,0,17.29-13.89,30.68-30.97,30.97h-.8c-5,0-9.8-1.2-14.49-3.6l-2.84,3.6h-10.49l6.43-8.5c-3-2.79-5.39-6.09-7.09-9.99-1.8-3.8-2.7-7.99-2.7-12.49ZM314.64,32.38c0,5.5,1.9,10.39,5.39,14.29l24.78-33.47c-2.4-1.1-5-1.8-7.79-2.1h-1.3c-8.69,0-16.28,5.39-19.38,13.09-1.1,2.6-1.7,5.29-1.7,8.19ZM334.02,53.56c.6.1,1.3.1,1.9.1,4.6,0,9.69-1.7,13.79-5.4l.7-.7c3.9-3.99,6.39-9.29,6.39-15.29-.1-5.09-2-9.99-5.3-13.89l-24.68,33.37c2.3,1.1,4.5,1.7,7.2,1.8Z"/>
  <path class="cls-1" d="M404.97,63.36h-34.95V1.2h10.88v51.27h28.67l-4.6,10.88Z"/>
  <path class="cls-1" d="M471.1,32.07c0-17.68,14.23-30.45,32.12-30.97h16.84l-3.56,5.23c-.94,1.36-1.67,2.51-2.41,3.66-.31.63-.73,1.15-1.15,1.67h-8.79c-11.93,0-21.03,8.37-21.03,20.4,0,12.98,10.15,20.72,21.87,20.72h12.14l8.26,10.57h-21.34c-.94,0-1.88-.11-2.82-.11-13.08-1.04-23.23-8.58-27.83-19.46-1.57-3.66-2.3-7.54-2.3-11.72Z"/>
  <path class="cls-1" d="M527.52,63.36V7.53l10.88-6.49v62.31h-10.88Z"/>
  <path class="cls-1" d="M53.47,54.96c-4.39-9.94-9.1-19.46-18.83-40.91-8.68,19.04-10.15,21.87-10.88,23.54q-.63,1.78-6.8,14.86h20.61c1.67,3.87.21.52,5.02,10.88H0C.42,62.39,27.62,3.06,28.67,1.07h11.93c1.67,4.18,19.88,43.11,32.33,70.21v26.06c-10.36-22.29-14.96-32.44-19.46-42.38Z"/>
  <path class="cls-1" d="M463.04,54.93c-4.39-9.94-9.1-19.46-18.83-40.91-8.68,19.04-10.15,21.87-10.88,23.54q-.63,1.78-6.8,14.86h20.61c1.67,3.87.21.52,5.02,10.88h-42.59c.42-.94,27.62-60.27,28.67-62.26h11.93c1.67,4.18,19.88,43.11,32.33,70.21v26.06c-10.36-22.29-14.96-32.44-19.46-42.38Z"/>
</svg>